<mxfile host="Electron" modified="2024-09-08T19:56:35.724Z" agent="Mozilla/5.0 (Windows NT 10.0; Win64; x64) AppleWebKit/537.36 (KHTML, like Gecko) draw.io/22.0.3 Chrome/114.0.5735.289 Electron/25.8.4 Safari/537.36" etag="V-r1y9bMJpYedDnfaAwm" version="22.0.3" type="device">
  <diagram name="PÃ¡gina-1" id="MMjbwrNw64m9ltUwn69v">
    <mxGraphModel dx="1501" dy="713" grid="1" gridSize="10" guides="1" tooltips="1" connect="1" arrows="1" fold="1" page="1" pageScale="1" pageWidth="827" pageHeight="1169" math="0" shadow="0">
      <root>
        <mxCell id="0" />
        <mxCell id="1" parent="0" />
        <mxCell id="ECgiACsWVQiAmtKmH3Md-9" value="Banco" style="swimlane;fontStyle=1;align=center;verticalAlign=top;childLayout=stackLayout;horizontal=1;startSize=30;horizontalStack=0;resizeParent=1;resizeParentMax=0;resizeLast=0;collapsible=1;marginBottom=0;whiteSpace=wrap;html=1;" parent="1" vertex="1">
          <mxGeometry x="310" y="100" width="320" height="120" as="geometry" />
        </mxCell>
        <mxCell id="ECgiACsWVQiAmtKmH3Md-10" value="- nombre : String&lt;br&gt;- ubicacion : String" style="text;strokeColor=none;fillColor=none;align=left;verticalAlign=top;spacingLeft=4;spacingRight=4;overflow=hidden;rotatable=0;points=[[0,0.5],[1,0.5]];portConstraint=eastwest;whiteSpace=wrap;html=1;" parent="ECgiACsWVQiAmtKmH3Md-9" vertex="1">
          <mxGeometry y="30" width="320" height="50" as="geometry" />
        </mxCell>
        <mxCell id="ECgiACsWVQiAmtKmH3Md-11" value="" style="line;strokeWidth=1;fillColor=none;align=left;verticalAlign=middle;spacingTop=-1;spacingLeft=3;spacingRight=3;rotatable=0;labelPosition=right;points=[];portConstraint=eastwest;strokeColor=inherit;" parent="ECgiACsWVQiAmtKmH3Md-9" vertex="1">
          <mxGeometry y="80" width="320" height="8" as="geometry" />
        </mxCell>
        <mxCell id="ECgiACsWVQiAmtKmH3Md-12" value="&amp;nbsp;" style="text;strokeColor=none;fillColor=none;align=left;verticalAlign=top;spacingLeft=4;spacingRight=4;overflow=hidden;rotatable=0;points=[[0,0.5],[1,0.5]];portConstraint=eastwest;whiteSpace=wrap;html=1;" parent="ECgiACsWVQiAmtKmH3Md-9" vertex="1">
          <mxGeometry y="88" width="320" height="32" as="geometry" />
        </mxCell>
        <mxCell id="ECgiACsWVQiAmtKmH3Md-21" value="&amp;lt;&amp;lt; abstract &amp;gt;&amp;gt;&lt;br&gt;Transaccion" style="swimlane;fontStyle=1;align=center;verticalAlign=top;childLayout=stackLayout;horizontal=1;startSize=40;horizontalStack=0;resizeParent=1;resizeParentMax=0;resizeLast=0;collapsible=1;marginBottom=0;whiteSpace=wrap;html=1;" parent="1" vertex="1">
          <mxGeometry x="820" y="120" width="163" height="130" as="geometry" />
        </mxCell>
        <mxCell id="ECgiACsWVQiAmtKmH3Md-22" value="- fecha : Date&lt;br&gt;- monto : double" style="text;strokeColor=none;fillColor=none;align=left;verticalAlign=top;spacingLeft=4;spacingRight=4;overflow=hidden;rotatable=0;points=[[0,0.5],[1,0.5]];portConstraint=eastwest;whiteSpace=wrap;html=1;" parent="ECgiACsWVQiAmtKmH3Md-21" vertex="1">
          <mxGeometry y="40" width="163" height="40" as="geometry" />
        </mxCell>
        <mxCell id="ECgiACsWVQiAmtKmH3Md-23" value="" style="line;strokeWidth=1;fillColor=none;align=left;verticalAlign=middle;spacingTop=-1;spacingLeft=3;spacingRight=3;rotatable=0;labelPosition=right;points=[];portConstraint=eastwest;strokeColor=inherit;" parent="ECgiACsWVQiAmtKmH3Md-21" vertex="1">
          <mxGeometry y="80" width="163" height="8" as="geometry" />
        </mxCell>
        <mxCell id="ECgiACsWVQiAmtKmH3Md-24" value="+ impuesto() : double&lt;br&gt;+ montoPesos() : double" style="text;strokeColor=none;fillColor=none;align=left;verticalAlign=top;spacingLeft=4;spacingRight=4;overflow=hidden;rotatable=0;points=[[0,0.5],[1,0.5]];portConstraint=eastwest;whiteSpace=wrap;html=1;" parent="ECgiACsWVQiAmtKmH3Md-21" vertex="1">
          <mxGeometry y="88" width="163" height="42" as="geometry" />
        </mxCell>
        <mxCell id="ECgiACsWVQiAmtKmH3Md-27" value="&amp;lt;&amp;lt; abstract &amp;gt;&amp;gt;&lt;br&gt;Moneda" style="swimlane;fontStyle=1;align=center;verticalAlign=top;childLayout=stackLayout;horizontal=1;startSize=40;horizontalStack=0;resizeParent=1;resizeParentMax=0;resizeLast=0;collapsible=1;marginBottom=0;whiteSpace=wrap;html=1;" parent="1" vertex="1">
          <mxGeometry x="210" y="410" width="160" height="100" as="geometry" />
        </mxCell>
        <mxCell id="ECgiACsWVQiAmtKmH3Md-28" value="- monto : double" style="text;strokeColor=none;fillColor=none;align=left;verticalAlign=top;spacingLeft=4;spacingRight=4;overflow=hidden;rotatable=0;points=[[0,0.5],[1,0.5]];portConstraint=eastwest;whiteSpace=wrap;html=1;" parent="ECgiACsWVQiAmtKmH3Md-27" vertex="1">
          <mxGeometry y="40" width="160" height="26" as="geometry" />
        </mxCell>
        <mxCell id="ECgiACsWVQiAmtKmH3Md-29" value="" style="line;strokeWidth=1;fillColor=none;align=left;verticalAlign=middle;spacingTop=-1;spacingLeft=3;spacingRight=3;rotatable=0;labelPosition=right;points=[];portConstraint=eastwest;strokeColor=inherit;" parent="ECgiACsWVQiAmtKmH3Md-27" vertex="1">
          <mxGeometry y="66" width="160" height="8" as="geometry" />
        </mxCell>
        <mxCell id="ECgiACsWVQiAmtKmH3Md-30" value="+ getValor()" style="text;strokeColor=none;fillColor=none;align=left;verticalAlign=top;spacingLeft=4;spacingRight=4;overflow=hidden;rotatable=0;points=[[0,0.5],[1,0.5]];portConstraint=eastwest;whiteSpace=wrap;html=1;" parent="ECgiACsWVQiAmtKmH3Md-27" vertex="1">
          <mxGeometry y="74" width="160" height="26" as="geometry" />
        </mxCell>
        <mxCell id="ECgiACsWVQiAmtKmH3Md-31" value="Dolar" style="swimlane;fontStyle=1;align=center;verticalAlign=top;childLayout=stackLayout;horizontal=1;startSize=30;horizontalStack=0;resizeParent=1;resizeParentMax=0;resizeLast=0;collapsible=1;marginBottom=0;whiteSpace=wrap;html=1;" parent="1" vertex="1">
          <mxGeometry x="20" y="570" width="160" height="90" as="geometry" />
        </mxCell>
        <mxCell id="ECgiACsWVQiAmtKmH3Md-32" value="- monto : double" style="text;strokeColor=none;fillColor=none;align=left;verticalAlign=top;spacingLeft=4;spacingRight=4;overflow=hidden;rotatable=0;points=[[0,0.5],[1,0.5]];portConstraint=eastwest;whiteSpace=wrap;html=1;" parent="ECgiACsWVQiAmtKmH3Md-31" vertex="1">
          <mxGeometry y="30" width="160" height="26" as="geometry" />
        </mxCell>
        <mxCell id="ECgiACsWVQiAmtKmH3Md-33" value="" style="line;strokeWidth=1;fillColor=none;align=left;verticalAlign=middle;spacingTop=-1;spacingLeft=3;spacingRight=3;rotatable=0;labelPosition=right;points=[];portConstraint=eastwest;strokeColor=inherit;" parent="ECgiACsWVQiAmtKmH3Md-31" vertex="1">
          <mxGeometry y="56" width="160" height="8" as="geometry" />
        </mxCell>
        <mxCell id="ECgiACsWVQiAmtKmH3Md-34" value="+ getValor()" style="text;strokeColor=none;fillColor=none;align=left;verticalAlign=top;spacingLeft=4;spacingRight=4;overflow=hidden;rotatable=0;points=[[0,0.5],[1,0.5]];portConstraint=eastwest;whiteSpace=wrap;html=1;" parent="ECgiACsWVQiAmtKmH3Md-31" vertex="1">
          <mxGeometry y="64" width="160" height="26" as="geometry" />
        </mxCell>
        <mxCell id="ECgiACsWVQiAmtKmH3Md-35" value="Yen" style="swimlane;fontStyle=1;align=center;verticalAlign=top;childLayout=stackLayout;horizontal=1;startSize=30;horizontalStack=0;resizeParent=1;resizeParentMax=0;resizeLast=0;collapsible=1;marginBottom=0;whiteSpace=wrap;html=1;" parent="1" vertex="1">
          <mxGeometry x="210" y="570" width="160" height="90" as="geometry" />
        </mxCell>
        <mxCell id="ECgiACsWVQiAmtKmH3Md-36" value="- monto : double" style="text;strokeColor=none;fillColor=none;align=left;verticalAlign=top;spacingLeft=4;spacingRight=4;overflow=hidden;rotatable=0;points=[[0,0.5],[1,0.5]];portConstraint=eastwest;whiteSpace=wrap;html=1;" parent="ECgiACsWVQiAmtKmH3Md-35" vertex="1">
          <mxGeometry y="30" width="160" height="26" as="geometry" />
        </mxCell>
        <mxCell id="ECgiACsWVQiAmtKmH3Md-37" value="" style="line;strokeWidth=1;fillColor=none;align=left;verticalAlign=middle;spacingTop=-1;spacingLeft=3;spacingRight=3;rotatable=0;labelPosition=right;points=[];portConstraint=eastwest;strokeColor=inherit;" parent="ECgiACsWVQiAmtKmH3Md-35" vertex="1">
          <mxGeometry y="56" width="160" height="8" as="geometry" />
        </mxCell>
        <mxCell id="ECgiACsWVQiAmtKmH3Md-38" value="+ getValor()" style="text;strokeColor=none;fillColor=none;align=left;verticalAlign=top;spacingLeft=4;spacingRight=4;overflow=hidden;rotatable=0;points=[[0,0.5],[1,0.5]];portConstraint=eastwest;whiteSpace=wrap;html=1;" parent="ECgiACsWVQiAmtKmH3Md-35" vertex="1">
          <mxGeometry y="64" width="160" height="26" as="geometry" />
        </mxCell>
        <mxCell id="ECgiACsWVQiAmtKmH3Md-39" value="Euro" style="swimlane;fontStyle=1;align=center;verticalAlign=top;childLayout=stackLayout;horizontal=1;startSize=30;horizontalStack=0;resizeParent=1;resizeParentMax=0;resizeLast=0;collapsible=1;marginBottom=0;whiteSpace=wrap;html=1;" parent="1" vertex="1">
          <mxGeometry x="401" y="570" width="160" height="90" as="geometry" />
        </mxCell>
        <mxCell id="ECgiACsWVQiAmtKmH3Md-40" value="- monto : double" style="text;strokeColor=none;fillColor=none;align=left;verticalAlign=top;spacingLeft=4;spacingRight=4;overflow=hidden;rotatable=0;points=[[0,0.5],[1,0.5]];portConstraint=eastwest;whiteSpace=wrap;html=1;" parent="ECgiACsWVQiAmtKmH3Md-39" vertex="1">
          <mxGeometry y="30" width="160" height="26" as="geometry" />
        </mxCell>
        <mxCell id="ECgiACsWVQiAmtKmH3Md-41" value="" style="line;strokeWidth=1;fillColor=none;align=left;verticalAlign=middle;spacingTop=-1;spacingLeft=3;spacingRight=3;rotatable=0;labelPosition=right;points=[];portConstraint=eastwest;strokeColor=inherit;" parent="ECgiACsWVQiAmtKmH3Md-39" vertex="1">
          <mxGeometry y="56" width="160" height="8" as="geometry" />
        </mxCell>
        <mxCell id="ECgiACsWVQiAmtKmH3Md-42" value="+ getValor()" style="text;strokeColor=none;fillColor=none;align=left;verticalAlign=top;spacingLeft=4;spacingRight=4;overflow=hidden;rotatable=0;points=[[0,0.5],[1,0.5]];portConstraint=eastwest;whiteSpace=wrap;html=1;" parent="ECgiACsWVQiAmtKmH3Md-39" vertex="1">
          <mxGeometry y="64" width="160" height="26" as="geometry" />
        </mxCell>
        <mxCell id="ECgiACsWVQiAmtKmH3Md-43" value="Extends" style="endArrow=block;endSize=16;endFill=0;html=1;rounded=0;exitX=0.5;exitY=0;exitDx=0;exitDy=0;" parent="1" source="ECgiACsWVQiAmtKmH3Md-31" target="ECgiACsWVQiAmtKmH3Md-30" edge="1">
          <mxGeometry width="160" relative="1" as="geometry">
            <mxPoint x="330" y="470" as="sourcePoint" />
            <mxPoint x="490" y="470" as="targetPoint" />
          </mxGeometry>
        </mxCell>
        <mxCell id="ECgiACsWVQiAmtKmH3Md-44" value="Extends" style="endArrow=block;endSize=16;endFill=0;html=1;rounded=0;exitX=0.5;exitY=0;exitDx=0;exitDy=0;" parent="1" source="ECgiACsWVQiAmtKmH3Md-35" target="ECgiACsWVQiAmtKmH3Md-30" edge="1">
          <mxGeometry width="160" relative="1" as="geometry">
            <mxPoint x="110" y="580" as="sourcePoint" />
            <mxPoint x="266" y="520" as="targetPoint" />
          </mxGeometry>
        </mxCell>
        <mxCell id="ECgiACsWVQiAmtKmH3Md-45" value="Extends" style="endArrow=block;endSize=16;endFill=0;html=1;rounded=0;exitX=0.5;exitY=0;exitDx=0;exitDy=0;" parent="1" source="ECgiACsWVQiAmtKmH3Md-39" target="ECgiACsWVQiAmtKmH3Md-30" edge="1">
          <mxGeometry width="160" relative="1" as="geometry">
            <mxPoint x="300" y="580" as="sourcePoint" />
            <mxPoint x="300" y="520" as="targetPoint" />
          </mxGeometry>
        </mxCell>
        <mxCell id="ECgiACsWVQiAmtKmH3Md-46" value="Cliente" style="swimlane;fontStyle=1;align=center;verticalAlign=top;childLayout=stackLayout;horizontal=1;startSize=26;horizontalStack=0;resizeParent=1;resizeParentMax=0;resizeLast=0;collapsible=1;marginBottom=0;whiteSpace=wrap;html=1;" parent="1" vertex="1">
          <mxGeometry x="30" y="30" width="163" height="124" as="geometry" />
        </mxCell>
        <mxCell id="ECgiACsWVQiAmtKmH3Md-47" value="- nombre : String&lt;br&gt;- apellido : String&lt;br&gt;- dni : int" style="text;strokeColor=none;fillColor=none;align=left;verticalAlign=top;spacingLeft=4;spacingRight=4;overflow=hidden;rotatable=0;points=[[0,0.5],[1,0.5]];portConstraint=eastwest;whiteSpace=wrap;html=1;" parent="ECgiACsWVQiAmtKmH3Md-46" vertex="1">
          <mxGeometry y="26" width="163" height="64" as="geometry" />
        </mxCell>
        <mxCell id="ECgiACsWVQiAmtKmH3Md-48" value="" style="line;strokeWidth=1;fillColor=none;align=left;verticalAlign=middle;spacingTop=-1;spacingLeft=3;spacingRight=3;rotatable=0;labelPosition=right;points=[];portConstraint=eastwest;strokeColor=inherit;" parent="ECgiACsWVQiAmtKmH3Md-46" vertex="1">
          <mxGeometry y="90" width="163" height="8" as="geometry" />
        </mxCell>
        <mxCell id="ECgiACsWVQiAmtKmH3Md-49" value="&amp;nbsp;" style="text;strokeColor=none;fillColor=none;align=left;verticalAlign=top;spacingLeft=4;spacingRight=4;overflow=hidden;rotatable=0;points=[[0,0.5],[1,0.5]];portConstraint=eastwest;whiteSpace=wrap;html=1;" parent="ECgiACsWVQiAmtKmH3Md-46" vertex="1">
          <mxGeometry y="98" width="163" height="26" as="geometry" />
        </mxCell>
        <mxCell id="ECgiACsWVQiAmtKmH3Md-50" value="TransaccionInternacional" style="swimlane;fontStyle=1;align=center;verticalAlign=top;childLayout=stackLayout;horizontal=1;startSize=40;horizontalStack=0;resizeParent=1;resizeParentMax=0;resizeLast=0;collapsible=1;marginBottom=0;whiteSpace=wrap;html=1;" parent="1" vertex="1">
          <mxGeometry x="695" y="340" width="163" height="120" as="geometry" />
        </mxCell>
        <mxCell id="ECgiACsWVQiAmtKmH3Md-51" value="&amp;nbsp;" style="text;strokeColor=none;fillColor=none;align=left;verticalAlign=top;spacingLeft=4;spacingRight=4;overflow=hidden;rotatable=0;points=[[0,0.5],[1,0.5]];portConstraint=eastwest;whiteSpace=wrap;html=1;" parent="ECgiACsWVQiAmtKmH3Md-50" vertex="1">
          <mxGeometry y="40" width="163" height="26" as="geometry" />
        </mxCell>
        <mxCell id="ECgiACsWVQiAmtKmH3Md-52" value="" style="line;strokeWidth=1;fillColor=none;align=left;verticalAlign=middle;spacingTop=-1;spacingLeft=3;spacingRight=3;rotatable=0;labelPosition=right;points=[];portConstraint=eastwest;strokeColor=inherit;" parent="ECgiACsWVQiAmtKmH3Md-50" vertex="1">
          <mxGeometry y="66" width="163" height="8" as="geometry" />
        </mxCell>
        <mxCell id="ECgiACsWVQiAmtKmH3Md-53" value="+ impuesto() : double&lt;br&gt;+ montoPesos() : double" style="text;strokeColor=none;fillColor=none;align=left;verticalAlign=top;spacingLeft=4;spacingRight=4;overflow=hidden;rotatable=0;points=[[0,0.5],[1,0.5]];portConstraint=eastwest;whiteSpace=wrap;html=1;" parent="ECgiACsWVQiAmtKmH3Md-50" vertex="1">
          <mxGeometry y="74" width="163" height="46" as="geometry" />
        </mxCell>
        <mxCell id="ECgiACsWVQiAmtKmH3Md-54" value="- bancoDestino" style="endArrow=open;endSize=12;dashed=1;html=1;rounded=0;entryX=1;entryY=0.5;entryDx=0;entryDy=0;exitX=-0.022;exitY=0.095;exitDx=0;exitDy=0;exitPerimeter=0;" parent="1" source="ECgiACsWVQiAmtKmH3Md-24" target="ECgiACsWVQiAmtKmH3Md-10" edge="1">
          <mxGeometry x="0.112" y="-10" width="160" relative="1" as="geometry">
            <mxPoint x="330" y="350" as="sourcePoint" />
            <mxPoint x="490" y="350" as="targetPoint" />
            <Array as="points">
              <mxPoint x="670" y="210" />
              <mxPoint x="670" y="155" />
            </Array>
            <mxPoint as="offset" />
          </mxGeometry>
        </mxCell>
        <mxCell id="ECgiACsWVQiAmtKmH3Md-55" value="- clienteOrigen" style="endArrow=open;endSize=12;dashed=1;html=1;rounded=0;entryX=1;entryY=0.5;entryDx=0;entryDy=0;exitX=0;exitY=0.5;exitDx=0;exitDy=0;" parent="1" source="ECgiACsWVQiAmtKmH3Md-22" target="ECgiACsWVQiAmtKmH3Md-47" edge="1">
          <mxGeometry width="160" relative="1" as="geometry">
            <mxPoint x="640" y="189" as="sourcePoint" />
            <mxPoint x="504" y="165" as="targetPoint" />
            <Array as="points">
              <mxPoint x="700" y="180" />
              <mxPoint x="700" y="70" />
              <mxPoint x="270" y="70" />
            </Array>
          </mxGeometry>
        </mxCell>
        <mxCell id="ECgiACsWVQiAmtKmH3Md-56" value="TransaccionNacional" style="swimlane;fontStyle=1;align=center;verticalAlign=top;childLayout=stackLayout;horizontal=1;startSize=40;horizontalStack=0;resizeParent=1;resizeParentMax=0;resizeLast=0;collapsible=1;marginBottom=0;whiteSpace=wrap;html=1;" parent="1" vertex="1">
          <mxGeometry x="945" y="340" width="163" height="120" as="geometry" />
        </mxCell>
        <mxCell id="ECgiACsWVQiAmtKmH3Md-57" value="&amp;nbsp;" style="text;strokeColor=none;fillColor=none;align=left;verticalAlign=top;spacingLeft=4;spacingRight=4;overflow=hidden;rotatable=0;points=[[0,0.5],[1,0.5]];portConstraint=eastwest;whiteSpace=wrap;html=1;" parent="ECgiACsWVQiAmtKmH3Md-56" vertex="1">
          <mxGeometry y="40" width="163" height="26" as="geometry" />
        </mxCell>
        <mxCell id="ECgiACsWVQiAmtKmH3Md-58" value="" style="line;strokeWidth=1;fillColor=none;align=left;verticalAlign=middle;spacingTop=-1;spacingLeft=3;spacingRight=3;rotatable=0;labelPosition=right;points=[];portConstraint=eastwest;strokeColor=inherit;" parent="ECgiACsWVQiAmtKmH3Md-56" vertex="1">
          <mxGeometry y="66" width="163" height="8" as="geometry" />
        </mxCell>
        <mxCell id="ECgiACsWVQiAmtKmH3Md-59" value="+ impuesto() : double&lt;br&gt;+ montoPesos() : double" style="text;strokeColor=none;fillColor=none;align=left;verticalAlign=top;spacingLeft=4;spacingRight=4;overflow=hidden;rotatable=0;points=[[0,0.5],[1,0.5]];portConstraint=eastwest;whiteSpace=wrap;html=1;" parent="ECgiACsWVQiAmtKmH3Md-56" vertex="1">
          <mxGeometry y="74" width="163" height="46" as="geometry" />
        </mxCell>
        <mxCell id="O-JCHqBwi00U3yutaf5--9" value="- transacciones" style="endArrow=open;endSize=12;dashed=1;html=1;rounded=0;entryX=0;entryY=0.5;entryDx=0;entryDy=0;" parent="1" source="ECgiACsWVQiAmtKmH3Md-12" target="ECgiACsWVQiAmtKmH3Md-24" edge="1">
          <mxGeometry width="160" relative="1" as="geometry">
            <mxPoint x="560" y="260" as="sourcePoint" />
            <mxPoint x="490" y="310" as="targetPoint" />
            <Array as="points">
              <mxPoint x="650" y="250" />
            </Array>
          </mxGeometry>
        </mxCell>
        <mxCell id="O-JCHqBwi00U3yutaf5--10" value="- moneda" style="endArrow=open;endSize=12;dashed=1;html=1;rounded=0;exitX=0;exitY=0.5;exitDx=0;exitDy=0;entryX=0.5;entryY=0;entryDx=0;entryDy=0;" parent="1" source="ECgiACsWVQiAmtKmH3Md-12" target="ECgiACsWVQiAmtKmH3Md-27" edge="1">
          <mxGeometry width="160" relative="1" as="geometry">
            <mxPoint x="330" y="310" as="sourcePoint" />
            <mxPoint x="490" y="310" as="targetPoint" />
            <Array as="points">
              <mxPoint x="290" y="204" />
            </Array>
          </mxGeometry>
        </mxCell>
        <mxCell id="O-JCHqBwi00U3yutaf5--12" value="Extends" style="endArrow=block;endSize=16;endFill=0;html=1;rounded=0;exitX=0.5;exitY=0;exitDx=0;exitDy=0;" parent="1" source="ECgiACsWVQiAmtKmH3Md-50" target="ECgiACsWVQiAmtKmH3Md-24" edge="1">
          <mxGeometry width="160" relative="1" as="geometry">
            <mxPoint x="887.5" y="340" as="sourcePoint" />
            <mxPoint x="490" y="520" as="targetPoint" />
          </mxGeometry>
        </mxCell>
        <mxCell id="O-JCHqBwi00U3yutaf5--13" value="Extends" style="endArrow=block;endSize=16;endFill=0;html=1;rounded=0;exitX=0.5;exitY=0;exitDx=0;exitDy=0;" parent="1" source="ECgiACsWVQiAmtKmH3Md-56" target="ECgiACsWVQiAmtKmH3Md-24" edge="1">
          <mxGeometry width="160" relative="1" as="geometry">
            <mxPoint x="980.5" y="304" as="sourcePoint" />
            <mxPoint x="1077.5" y="214" as="targetPoint" />
          </mxGeometry>
        </mxCell>
        <mxCell id="DdgqNAENV2k4dc7MF2V9-2" value="- clientes" style="endArrow=open;endSize=12;dashed=1;html=1;rounded=0;entryX=1.009;entryY=0.784;entryDx=0;entryDy=0;exitX=0;exitY=0.5;exitDx=0;exitDy=0;entryPerimeter=0;" edge="1" parent="1" source="ECgiACsWVQiAmtKmH3Md-10" target="ECgiACsWVQiAmtKmH3Md-47">
          <mxGeometry width="160" relative="1" as="geometry">
            <mxPoint x="260" y="170" as="sourcePoint" />
            <mxPoint x="210" y="375" as="targetPoint" />
            <Array as="points" />
          </mxGeometry>
        </mxCell>
      </root>
    </mxGraphModel>
  </diagram>
</mxfile>
